<svg xmlns="http://www.w3.org/2000/svg" viewBox="0 0 800 360" role="img" aria-labelledby="title desc">
  <title id="title">ComfyPencil registry banner</title>
  <desc id="desc">Registry banner showing the ComfyPencil studio, split preview, and material map workflow outputs.</desc>
  <rect width="800" height="360" fill="#0a0e14"/>
  <g stroke="#162131" stroke-width="1">
    <path d="M0 60H800"/>
    <path d="M0 120H800"/>
    <path d="M0 180H800"/>
    <path d="M0 240H800"/>
    <path d="M0 300H800"/>
    <path d="M80 0V360"/>
    <path d="M160 0V360"/>
    <path d="M240 0V360"/>
    <path d="M320 0V360"/>
    <path d="M400 0V360"/>
    <path d="M480 0V360"/>
    <path d="M560 0V360"/>
    <path d="M640 0V360"/>
    <path d="M720 0V360"/>
  </g>
  <rect x="24" y="24" width="752" height="312" rx="24" fill="#101722" stroke="#26364d" stroke-width="2"/>
  <text x="48" y="68" fill="#f3f6fb" font-size="26" font-weight="700" font-family="Segoe UI, Arial, sans-serif">ComfyPencil</text>
  <text x="48" y="92" fill="#8ea3be" font-size="14" font-weight="600" font-family="Segoe UI, Arial, sans-serif">Layered painting studio for ComfyUI</text>

  <rect x="48" y="116" width="426" height="180" rx="20" fill="#141d2b" stroke="#36527e" stroke-width="2"/>
  <rect x="72" y="138" width="264" height="136" rx="18" fill="#f2efe8"/>
  <path d="M98 214C128 170 153 169 186 191C222 214 251 213 279 183C309 151 342 151 376 173" fill="none" stroke="#1b1d21" stroke-width="6" stroke-linecap="round"/>
  <path d="M155 248C187 236 216 240 252 253C288 266 319 264 356 244" fill="none" stroke="#76961f" stroke-width="11" stroke-linecap="round"/>
  <rect x="356" y="150" width="94" height="118" rx="16" fill="#0d131d" stroke="#39557f" stroke-width="2"/>
  <rect x="372" y="170" width="62" height="62" rx="12" fill="#f2efe8"/>
  <path d="M382 204C394 189 406 188 418 198C431 209 442 208 454 197" fill="none" stroke="#4f93ff" stroke-width="5" stroke-linecap="round"/>
  <text x="374" y="252" fill="#f3f6fb" font-size="12" font-weight="700" font-family="Segoe UI, Arial, sans-serif">Split Preview</text>

  <rect x="504" y="116" width="236" height="180" rx="20" fill="#0d131d" stroke="#2b3b54"/>
  <text x="524" y="144" fill="#f3f6fb" font-size="14" font-weight="700" font-family="Segoe UI, Arial, sans-serif">Workflow Outputs</text>
  <g font-family="Segoe UI, Arial, sans-serif" font-size="11" font-weight="700">
    <rect x="524" y="166" width="88" height="24" rx="12" fill="#243247"/>
    <text x="568" y="182" text-anchor="middle" fill="#dce7f9">IMAGE</text>
    <rect x="620" y="166" width="88" height="24" rx="12" fill="#243247"/>
    <text x="664" y="182" text-anchor="middle" fill="#dce7f9">MASK</text>
    <rect x="524" y="198" width="88" height="24" rx="12" fill="#243247"/>
    <text x="568" y="214" text-anchor="middle" fill="#dce7f9">HEIGHT</text>
    <rect x="620" y="198" width="88" height="24" rx="12" fill="#243247"/>
    <text x="664" y="214" text-anchor="middle" fill="#dce7f9">ROUGH</text>
    <rect x="524" y="230" width="88" height="24" rx="12" fill="#243247"/>
    <text x="568" y="246" text-anchor="middle" fill="#dce7f9">SPEC</text>
    <rect x="620" y="230" width="88" height="24" rx="12" fill="#243247"/>
    <text x="664" y="246" text-anchor="middle" fill="#dce7f9">LIGHT</text>
  </g>
  <text x="524" y="278" fill="#8ea3be" font-size="12" font-weight="600" font-family="Segoe UI, Arial, sans-serif">Paint, save, reopen, and feed the graph.</text>
</svg>
